<svg width="53" height="53" viewBox="0 0 53 53" fill="none" xmlns="http://www.w3.org/2000/svg">
<rect width="53" height="53" rx="15" fill="#F16464"/>
<path fill-rule="evenodd" clip-rule="evenodd" d="M9.16867 18.174C9.06688 18.279 9 18.4639 9 18.6405C9 18.9439 14.1646 32.7489 14.6582 33.7645C15.7026 35.914 17.6704 37.4277 20.0078 37.8795C20.6315 38.0001 21.1282 38.0187 22.8309 37.9852C24.7805 37.9469 24.9411 37.931 25.6772 37.7046L26.4573 37.4647L27.2373 37.7077C27.9873 37.9414 28.102 37.9521 30.2101 37.9857C32.8962 38.0285 33.5755 37.9213 34.9314 37.2409C36.481 36.4631 37.6253 35.3091 38.3847 33.7583C38.5098 33.5027 39.8243 30.079 41.3055 26.1502C43.2888 20.8901 43.9988 18.9122 43.9988 18.6474C43.9988 17.9709 44.1845 17.9998 39.8598 18.0013C35.5455 18.0027 35.4257 18.0159 34.2351 18.622C33.3577 19.0686 32.4253 19.9457 31.9067 20.8121C31.6476 21.245 30.922 23.0608 29.5371 26.7422C28.4392 29.6607 27.445 32.2305 27.3278 32.4528C27.2104 32.6752 26.9724 33.0003 26.7986 33.1752L26.4828 33.4934L26.2225 33.1876C26.0794 33.0194 25.8634 32.7077 25.7424 32.4948C25.6215 32.282 24.6123 29.6905 23.4998 26.736C22.3873 23.7815 21.3384 21.1259 21.169 20.8347C20.4439 19.5881 19.0641 18.5485 17.6339 18.1712C17.0351 18.0133 16.6884 18 13.1611 18C9.44976 18 9.33236 18.0051 9.16867 18.174ZM17.1929 21.5814C17.7312 21.8395 18.258 22.3398 18.4623 22.7872C18.538 22.9531 19.4571 25.37 20.5048 28.1583C21.5524 30.9465 22.5515 33.5105 22.7249 33.856C22.8984 34.2014 23.0533 34.5135 23.0691 34.5494C23.085 34.5852 22.5675 34.6146 21.9191 34.6146C20.6279 34.6146 19.947 34.466 19.2144 34.0245C18.7244 33.7291 18.0231 33.0126 17.7487 32.5269C17.5643 32.2005 13.6224 21.9497 13.4885 21.4483C13.4472 21.294 13.5192 21.2881 15.0809 21.3199C16.6343 21.3515 16.7406 21.3646 17.1929 21.5814ZM39.5886 21.4143C39.565 21.4741 38.6284 23.9528 37.5073 26.9227C35.2679 32.8543 35.2011 32.9929 34.216 33.7568C33.3641 34.4175 32.7317 34.6048 31.1167 34.675C30.2275 34.7136 29.915 34.7007 29.915 34.6255C29.915 34.5697 30.0077 34.3779 30.1209 34.1996C30.4087 33.7461 30.5243 33.4536 32.6488 27.8011C33.6886 25.0345 34.6449 22.614 34.7738 22.4221C35.0502 22.0107 35.5441 21.641 36.0718 21.4506C36.5704 21.2707 39.6578 21.2388 39.5886 21.4143Z" fill="white"/>
</svg>
